<svg width="100" height="100" viewBox="0 0 100 100" fill="none" xmlns="http://www.w3.org/2000/svg">
<g clip-path="url(#clip0_31_1245)">
<path d="M14.65 85.35C9.87449 80.7376 6.06538 75.2204 3.44493 69.1202C0.82448 63.02 -0.554832 56.459 -0.612523 49.82C-0.670213 43.1811 0.594872 36.5971 3.10892 30.4523C5.62296 24.3075 9.33562 18.7249 14.0303 14.0302C18.7249 9.33559 24.3075 5.62293 30.4523 3.10889C36.5971 0.594841 43.1811 -0.670244 49.8201 -0.612553C56.459 -0.554862 63.02 0.824449 69.1202 3.4449C75.2204 6.06535 80.7377 9.87446 85.35 14.65C94.4579 24.0801 99.4976 36.7102 99.3837 49.82C99.2698 62.9299 94.0113 75.4705 84.7409 84.7409C75.4705 94.0113 62.9299 99.2697 49.8201 99.3837C36.7102 99.4976 24.0801 94.4579 14.65 85.35ZM21.7 78.3C29.2056 85.8056 39.3854 90.0222 50 90.0222C60.6146 90.0222 70.7944 85.8056 78.3 78.3C85.8056 70.7943 90.0222 60.6145 90.0222 50C90.0222 39.3854 85.8056 29.2056 78.3 21.7C70.7944 14.1943 60.6146 9.97773 50 9.97773C39.3854 9.97773 29.2056 14.1943 21.7 21.7C14.1944 29.2056 9.97776 39.3854 9.97776 50C9.97776 60.6145 14.1944 70.7943 21.7 78.3ZM71.2 35.85L57.05 50L71.2 64.15L64.15 71.2L50 57.05L35.85 71.2L28.8 64.15L42.95 50L28.8 35.85L35.85 28.8L50 42.95L64.15 28.8L71.2 35.85Z" fill="#222222"/>
</g>
<defs>
<clipPath id="clip0_31_1245">
<rect width="100" height="100" fill="white"/>
</clipPath>
</defs>
</svg>
