<svg width="17" height="17" viewBox="0 0 17 17" fill="none" xmlns="http://www.w3.org/2000/svg">
<path fill-rule="evenodd" clip-rule="evenodd" d="M5.95 0C5.49913 0 5.06673 0.179107 4.74792 0.497918C4.42911 0.81673 4.25 1.24913 4.25 1.7V3.4H5.95V1.7H15.3V11.05H13.6V12.75H15.3C15.7509 12.75 16.1833 12.5709 16.5021 12.2521C16.8209 11.9333 17 11.5009 17 11.05V1.7C17 1.24913 16.8209 0.81673 16.5021 0.497918C16.1833 0.179107 15.7509 0 15.3 0H5.95ZM1.7 4.25C1.24913 4.25 0.81673 4.42911 0.497918 4.74792C0.179107 5.06673 0 5.49913 0 5.95V15.3C0 15.7509 0.179107 16.1833 0.497918 16.5021C0.81673 16.8209 1.24913 17 1.7 17H11.05C11.5009 17 11.9333 16.8209 12.2521 16.5021C12.5709 16.1833 12.75 15.7509 12.75 15.3V5.95C12.75 5.49913 12.5709 5.06673 12.2521 4.74792C11.9333 4.42911 11.5009 4.25 11.05 4.25H1.7ZM1.7 5.95H11.05V15.3H1.7V5.95Z" fill="white"/>
</svg>
