<svg width="16" height="16" viewBox="0 0 16 16" fill="none" xmlns="http://www.w3.org/2000/svg">
<path d="M15.5375 0.300281C15.4425 0.205093 15.3297 0.129575 15.2055 0.0780485C15.0813 0.0265224 14.9481 0 14.8136 0C14.6791 0 14.546 0.0265224 14.4218 0.0780485C14.2976 0.129575 14.1847 0.205093 14.0897 0.300281L5.38249 9.01778L1.74763 5.38292C1.55564 5.19094 1.29525 5.08308 1.02374 5.08308C0.752225 5.08308 0.491833 5.19094 0.299845 5.38292C0.107857 5.57491 0 5.8353 0 6.10682C0 6.24125 0.0264795 6.37438 0.0779271 6.49858C0.129375 6.62279 0.204783 6.73564 0.299845 6.83071L4.65346 11.1843C5.05391 11.5848 5.7008 11.5848 6.10125 11.1843L15.5375 1.74806C15.9482 1.34761 15.9482 0.700731 15.5375 0.300281ZM1.7579 16H14.0795C14.6442 16 15.1063 15.5379 15.1063 14.9732C15.1063 14.4085 14.6442 13.9464 14.0795 13.9464H1.7579C1.19316 13.9464 0.7311 14.4085 0.7311 14.9732C0.7311 15.5379 1.19316 16 1.7579 16Z" fill="white"/>
</svg>
